{
	"asset":{
		"generator":"Khronos glTF Blender I/O v4.3.47",
		"version":"2.0"
	},
	"scene":0,
	"scenes":[
		{
			"name":"Scene",
			"nodes":[
				4
			]
		}
	],
	"nodes":[
		{
			"mesh":0,
			"name":"pCube15_holzblockf\ufffd\ufffdlder_0"
		},
		{
			"children":[
				0
			],
			"name":"pCube15"
		},
		{
			"children":[
				1
			],
			"name":"RootNode"
		},
		{
			"children":[
				2
			],
			"name":"7de2b96f05b045b3a8d2efec05a78853.fbx",
			"rotation":[
				0.70710688829422,
				0,
				0,
				0.7071066498756409
			]
		},
		{
			"children":[
				3
			],
			"name":"Sketchfab_model",
			"rotation":[
				-0.70710688829422,
				0,
				0,
				0.7071066498756409
			]
		}
	],
	"materials":[
		{
			"doubleSided":true,
			"name":"holzblockflder",
			"normalTexture":{
				"index":0
			},
			"pbrMetallicRoughness":{
				"baseColorTexture":{
					"index":1
				},
				"metallicFactor":0,
				"metallicRoughnessTexture":{
					"index":2
				}
			}
		},
		{
			"doubleSided":true,
			"name":"holzblock",
			"normalTexture":{
				"index":3
			},
			"pbrMetallicRoughness":{
				"baseColorTexture":{
					"index":4
				},
				"metallicRoughnessTexture":{
					"index":5
				}
			}
		}
	],
	"meshes":[
		{
			"name":"pCube15_holzblockf\ufffd\ufffdlder_0",
			"primitives":[
				{
					"attributes":{
						"POSITION":0,
						"NORMAL":1,
						"TEXCOORD_0":2
					},
					"indices":3,
					"material":0
				},
				{
					"attributes":{
						"POSITION":4,
						"NORMAL":5,
						"TEXCOORD_0":6
					},
					"indices":7,
					"material":1
				}
			]
		}
	],
	"textures":[
		{
			"sampler":0,
			"source":0
		},
		{
			"sampler":0,
			"source":1
		},
		{
			"sampler":0,
			"source":2
		},
		{
			"sampler":0,
			"source":3
		},
		{
			"sampler":0,
			"source":4
		},
		{
			"sampler":0,
			"source":5
		}
	],
	"images":[
		{
			"mimeType":"image/png",
			"name":"holzblockflder_normal.png",
			"uri":"textures/holzblockflder_normal.png"
		},
		{
			"mimeType":"image/png",
			"name":"holzblockflder_baseColor.png",
			"uri":"textures/holzblockflder_baseColor.png"
		},
		{
			"mimeType":"image/png",
			"name":"holzblockflder_metallicRoughness.png",
			"uri":"textures/holzblockflder_metallicRoughness.png"
		},
		{
			"mimeType":"image/png",
			"name":"holzblock_normal.png",
			"uri":"textures/holzblock_normal.png"
		},
		{
			"mimeType":"image/png",
			"name":"holzblock_baseColor.png",
			"uri":"textures/holzblock_baseColor.png"
		},
		{
			"mimeType":"image/png",
			"name":"holzblock_metallicRoughness.png",
			"uri":"textures/holzblock_metallicRoughness.png"
		}
	],
	"accessors":[
		{
			"bufferView":0,
			"componentType":5126,
			"count":192,
			"max":[
				3.3619272708892822,
				4.095020771026611,
				2.1048269271850586
			],
			"min":[
				-2.8159849643707275,
				-0.014622986316680908,
				-3.1258435249328613
			],
			"type":"VEC3"
		},
		{
			"bufferView":1,
			"componentType":5126,
			"count":192,
			"type":"VEC3"
		},
		{
			"bufferView":2,
			"componentType":5126,
			"count":192,
			"type":"VEC2"
		},
		{
			"bufferView":3,
			"componentType":5123,
			"count":288,
			"type":"SCALAR"
		},
		{
			"bufferView":4,
			"componentType":5126,
			"count":576,
			"max":[
				3.3619272708892822,
				4.095020771026611,
				2.1048269271850586
			],
			"min":[
				-2.8159849643707275,
				-0.014622986316680908,
				-3.1258435249328613
			],
			"type":"VEC3"
		},
		{
			"bufferView":5,
			"componentType":5126,
			"count":576,
			"type":"VEC3"
		},
		{
			"bufferView":6,
			"componentType":5126,
			"count":576,
			"type":"VEC2"
		},
		{
			"bufferView":7,
			"componentType":5123,
			"count":768,
			"type":"SCALAR"
		}
	],
	"bufferViews":[
		{
			"buffer":0,
			"byteLength":2304,
			"byteOffset":0,
			"target":34962
		},
		{
			"buffer":0,
			"byteLength":2304,
			"byteOffset":2304,
			"target":34962
		},
		{
			"buffer":0,
			"byteLength":1536,
			"byteOffset":4608,
			"target":34962
		},
		{
			"buffer":0,
			"byteLength":576,
			"byteOffset":6144,
			"target":34963
		},
		{
			"buffer":0,
			"byteLength":6912,
			"byteOffset":6720,
			"target":34962
		},
		{
			"buffer":0,
			"byteLength":6912,
			"byteOffset":13632,
			"target":34962
		},
		{
			"buffer":0,
			"byteLength":4608,
			"byteOffset":20544,
			"target":34962
		},
		{
			"buffer":0,
			"byteLength":1536,
			"byteOffset":25152,
			"target":34963
		}
	],
	"samplers":[
		{
			"magFilter":9729,
			"minFilter":9987
		}
	],
	"buffers":[
		{
			"byteLength":26688,
			"uri":"cubes_toy.bin"
		}
	]
}
