{
	"asset":{
		"generator":"Khronos glTF Blender I/O v4.3.47",
		"version":"2.0"
	},
	"extensionsUsed":[
		"KHR_materials_specular"
	],
	"scene":0,
	"scenes":[
		{
			"name":"Scene",
			"nodes":[
				0
			]
		}
	],
	"nodes":[
		{
			"mesh":0,
			"name":"rubber_duck_toy"
		}
	],
	"materials":[
		{
			"doubleSided":true,
			"extensions":{
				"KHR_materials_specular":{
					"specularColorFactor":[
						1.3331999778747559,
						1.3331999778747559,
						1.3331999778747559
					]
				}
			},
			"name":"rubber_duck_toy"
		}
	],
	"meshes":[
		{
			"name":"rubberduck",
			"primitives":[
				{
					"attributes":{
						"POSITION":0,
						"NORMAL":1,
						"TEXCOORD_0":2
					},
					"indices":3,
					"material":0
				}
			]
		}
	],
	"accessors":[
		{
			"bufferView":0,
			"componentType":5126,
			"count":1319,
			"max":[
				0.1067524179816246,
				0.14609377086162567,
				0.2854783236980438
			],
			"min":[
				-0.106752410531044,
				-0.15390841662883759,
				-2.4379838578170165e-05
			],
			"type":"VEC3"
		},
		{
			"bufferView":1,
			"componentType":5126,
			"count":1319,
			"type":"VEC3"
		},
		{
			"bufferView":2,
			"componentType":5126,
			"count":1319,
			"type":"VEC2"
		},
		{
			"bufferView":3,
			"componentType":5123,
			"count":6432,
			"type":"SCALAR"
		}
	],
	"bufferViews":[
		{
			"buffer":0,
			"byteLength":15828,
			"byteOffset":0,
			"target":34962
		},
		{
			"buffer":0,
			"byteLength":15828,
			"byteOffset":15828,
			"target":34962
		},
		{
			"buffer":0,
			"byteLength":10552,
			"byteOffset":31656,
			"target":34962
		},
		{
			"buffer":0,
			"byteLength":12864,
			"byteOffset":42208,
			"target":34963
		}
	],
	"buffers":[
		{
			"byteLength":55072,
			"uri":"rubber_duck_toy_lp.bin"
		}
	]
}
