{
	"asset":{
		"generator":"Khronos glTF Blender I/O v4.3.47",
		"version":"2.0"
	},
	"scene":0,
	"scenes":[
		{
			"name":"Scene",
			"nodes":[
				2
			]
		}
	],
	"nodes":[
		{
			"mesh":0,
			"name":"Object_2",
			"scale":[
				0.39508259296417236,
				0.39508259296417236,
				0.39508259296417236
			]
		},
		{
			"children":[
				0
			],
			"name":"spidermanStatue_005.obj.cleaner"
		},
		{
			"children":[
				1
			],
			"name":"Sketchfab_model",
			"rotation":[
				-0.70710688829422,
				0,
				0,
				0.7071066498756409
			]
		}
	],
	"materials":[
		{
			"doubleSided":true,
			"name":"spidermanStatue_003_bodySculptdefaultMat",
			"pbrMetallicRoughness":{
				"metallicFactor":0.800000011920929
			}
		}
	],
	"meshes":[
		{
			"name":"Object_0",
			"primitives":[
				{
					"attributes":{
						"POSITION":0,
						"NORMAL":1,
						"TEXCOORD_0":2
					},
					"indices":3,
					"material":0
				}
			]
		}
	],
	"accessors":[
		{
			"bufferView":0,
			"componentType":5126,
			"count":1599,
			"max":[
				0.8198951482772827,
				0.6130531430244446,
				5.57758092880249
			],
			"min":[
				-1.0957273244857788,
				-0.5599006414413452,
				0.5006459951400757
			],
			"type":"VEC3"
		},
		{
			"bufferView":1,
			"componentType":5126,
			"count":1599,
			"type":"VEC3"
		},
		{
			"bufferView":2,
			"componentType":5126,
			"count":1599,
			"type":"VEC2"
		},
		{
			"bufferView":3,
			"componentType":5123,
			"count":7929,
			"type":"SCALAR"
		}
	],
	"bufferViews":[
		{
			"buffer":0,
			"byteLength":19188,
			"byteOffset":0,
			"target":34962
		},
		{
			"buffer":0,
			"byteLength":19188,
			"byteOffset":19188,
			"target":34962
		},
		{
			"buffer":0,
			"byteLength":12792,
			"byteOffset":38376,
			"target":34962
		},
		{
			"buffer":0,
			"byteLength":15858,
			"byteOffset":51168,
			"target":34963
		}
	],
	"buffers":[
		{
			"byteLength":67028,
			"uri":"spiderman_toy_lp.bin"
		}
	]
}
