{
	"asset":{
		"generator":"Khronos glTF Blender I/O v4.3.47",
		"version":"2.0"
	},
	"scene":0,
	"scenes":[
		{
			"name":"Scene",
			"nodes":[
				7
			]
		}
	],
	"nodes":[
		{
			"mesh":0,
			"name":"Group24127_Material #25_0"
		},
		{
			"mesh":1,
			"name":"Group24127_Material #26_0",
			"translation":[
				0.024606140330433846,
				0.013421528972685337,
				0
			]
		},
		{
			"mesh":2,
			"name":"Group24127_Material #27_0"
		},
		{
			"children":[
				0,
				1,
				2
			],
			"name":"Object_4",
			"translation":[
				-0.08528560400009155,
				-2.4738073348999023,
				-1.831313133239746
			]
		},
		{
			"children":[
				3
			],
			"name":"Group24127",
			"rotation":[
				-0.7071067690849304,
				0,
				0,
				0.7071068286895752
			],
			"scale":[
				24.33524513244629,
				24.33524513244629,
				24.33524513244629
			],
			"translation":[
				0,
				0,
				3.814697265625e-06
			]
		},
		{
			"children":[
				4
			],
			"name":"RootNode",
			"translation":[
				0,
				0,
				3.814697265625e-06
			]
		},
		{
			"children":[
				5
			],
			"name":"TEDDY_BEAR.FBX",
			"rotation":[
				0.70710688829422,
				0,
				0,
				0.7071066498756409
			],
			"translation":[
				0,
				0,
				4.203026037430391e-06
			]
		},
		{
			"children":[
				6
			],
			"name":"Sketchfab_model",
			"rotation":[
				-0.70710688829422,
				0,
				0,
				0.7071066498756409
			],
			"translation":[
				2.086383819580078,
				44.59465026855469,
				-59.67395782470703
			]
		}
	],
	"materials":[
		{
			"doubleSided":true,
			"name":"Material_25",
			"pbrMetallicRoughness":{
				"baseColorFactor":[
					0.018876975402235985,
					0.018876975402235985,
					0.018876975402235985,
					1
				],
				"metallicFactor":0.6236661672592163,
				"roughnessFactor":0.19073933362960815
			}
		},
		{
			"doubleSided":true,
			"name":"Material_26",
			"pbrMetallicRoughness":{
				"baseColorFactor":[
					0.05921480432152748,
					0.05921480432152748,
					0.05921480432152748,
					1
				],
				"metallicFactor":0.6236661672592163,
				"roughnessFactor":0.19073933362960815
			}
		},
		{
			"doubleSided":true,
			"name":"Material_27",
			"pbrMetallicRoughness":{
				"metallicFactor":0
			}
		}
	],
	"meshes":[
		{
			"name":"Group24127_Material #25_0",
			"primitives":[
				{
					"attributes":{
						"POSITION":0,
						"NORMAL":1,
						"TEXCOORD_0":2
					},
					"indices":3,
					"material":0
				}
			]
		},
		{
			"name":"Group24127_Material #26_0",
			"primitives":[
				{
					"attributes":{
						"POSITION":4,
						"NORMAL":5,
						"TEXCOORD_0":6
					},
					"indices":3,
					"material":1
				}
			]
		},
		{
			"name":"Group24127_Material #27_0",
			"primitives":[
				{
					"attributes":{
						"POSITION":7,
						"NORMAL":8,
						"TEXCOORD_0":9
					},
					"indices":10,
					"material":2
				}
			]
		}
	],
	"accessors":[
		{
			"bufferView":0,
			"componentType":5126,
			"count":576,
			"max":[
				0.09824757277965546,
				-0.01436392217874527,
				0.7007801532745361
			],
			"min":[
				0.045665621757507324,
				-0.0685369074344635,
				0.639427661895752
			],
			"type":"VEC3"
		},
		{
			"bufferView":1,
			"componentType":5126,
			"count":576,
			"type":"VEC3"
		},
		{
			"bufferView":2,
			"componentType":5126,
			"count":576,
			"type":"VEC2"
		},
		{
			"bufferView":3,
			"componentType":5123,
			"count":576,
			"type":"SCALAR"
		},
		{
			"bufferView":4,
			"componentType":5126,
			"count":576,
			"max":[
				-0.12830394506454468,
				-0.01436392217874527,
				0.7007801532745361
			],
			"min":[
				-0.180885910987854,
				-0.0685369074344635,
				0.639427661895752
			],
			"type":"VEC3"
		},
		{
			"bufferView":5,
			"componentType":5126,
			"count":576,
			"type":"VEC3"
		},
		{
			"bufferView":6,
			"componentType":5126,
			"count":576,
			"type":"VEC2"
		},
		{
			"bufferView":7,
			"componentType":5126,
			"count":3467,
			"max":[
				0.3102496266365051,
				0.3014039099216461,
				0.7910372018814087
			],
			"min":[
				-0.33123624324798584,
				-0.20147182047367096,
				-0.0012428371701389551
			],
			"type":"VEC3"
		},
		{
			"bufferView":8,
			"componentType":5126,
			"count":3467,
			"type":"VEC3"
		},
		{
			"bufferView":9,
			"componentType":5126,
			"count":3467,
			"type":"VEC2"
		},
		{
			"bufferView":10,
			"componentType":5123,
			"count":14364,
			"type":"SCALAR"
		}
	],
	"bufferViews":[
		{
			"buffer":0,
			"byteLength":6912,
			"byteOffset":0,
			"target":34962
		},
		{
			"buffer":0,
			"byteLength":6912,
			"byteOffset":6912,
			"target":34962
		},
		{
			"buffer":0,
			"byteLength":4608,
			"byteOffset":13824,
			"target":34962
		},
		{
			"buffer":0,
			"byteLength":1152,
			"byteOffset":18432,
			"target":34963
		},
		{
			"buffer":0,
			"byteLength":6912,
			"byteOffset":19584,
			"target":34962
		},
		{
			"buffer":0,
			"byteLength":6912,
			"byteOffset":26496,
			"target":34962
		},
		{
			"buffer":0,
			"byteLength":4608,
			"byteOffset":33408,
			"target":34962
		},
		{
			"buffer":0,
			"byteLength":41604,
			"byteOffset":38016,
			"target":34962
		},
		{
			"buffer":0,
			"byteLength":41604,
			"byteOffset":79620,
			"target":34962
		},
		{
			"buffer":0,
			"byteLength":27736,
			"byteOffset":121224,
			"target":34962
		},
		{
			"buffer":0,
			"byteLength":28728,
			"byteOffset":148960,
			"target":34963
		}
	],
	"buffers":[
		{
			"byteLength":177688,
			"uri":"teddybear_2.bin"
		}
	]
}
