{
	"asset":{
		"generator":"Khronos glTF Blender I/O v4.3.47",
		"version":"2.0"
	},
	"scene":0,
	"scenes":[
		{
			"name":"Scene",
			"nodes":[
				5
			]
		}
	],
	"nodes":[
		{
			"mesh":0,
			"name":"oak 01_leafes_Mat.001_0"
		},
		{
			"mesh":1,
			"name":"oak 01_leafes_Mat.001_0.001"
		},
		{
			"children":[
				0,
				1
			],
			"name":"oak 01"
		},
		{
			"children":[
				2
			],
			"name":"RootNode"
		},
		{
			"children":[
				3
			],
			"name":"e4a9b945b60a47099b7ed8ca539f430a.fbx",
			"rotation":[
				0.70710688829422,
				0,
				0,
				0.7071066498756409
			],
			"scale":[
				0.009999999776482582,
				0.010000000707805157,
				0.010000000707805157
			]
		},
		{
			"children":[
				4
			],
			"name":"Sketchfab_model",
			"rotation":[
				-0.70710688829422,
				0,
				0,
				0.7071066498756409
			]
		}
	],
	"materials":[
		{
			"alphaMode":"BLEND",
			"doubleSided":true,
			"name":"leafes_Mat.001",
			"pbrMetallicRoughness":{
				"baseColorFactor":[
					0.153746098279953,
					0.4658348560333252,
					0.03670068457722664,
					1
				],
				"baseColorTexture":{
					"index":0
				},
				"metallicFactor":0
			}
		}
	],
	"meshes":[
		{
			"name":"oak 01_leafes_Mat.001_0",
			"primitives":[
				{
					"attributes":{
						"POSITION":0,
						"NORMAL":1,
						"TEXCOORD_0":2,
						"TEXCOORD_1":3
					},
					"indices":4,
					"material":0
				}
			]
		},
		{
			"name":"oak 01_leafes_Mat.001_0.001",
			"primitives":[
				{
					"attributes":{
						"POSITION":5,
						"NORMAL":6,
						"TEXCOORD_0":7,
						"TEXCOORD_1":8
					},
					"indices":9,
					"material":0
				}
			]
		}
	],
	"textures":[
		{
			"sampler":0,
			"source":0
		}
	],
	"images":[
		{
			"mimeType":"image/png",
			"name":"leafes_Mat.001_baseColor",
			"uri":"leafes_Mat_001_baseColor.png"
		}
	],
	"accessors":[
		{
			"bufferView":0,
			"componentType":5126,
			"count":68210,
			"max":[
				17.871503829956055,
				56.396034240722656,
				18.477272033691406
			],
			"min":[
				-18.798599243164062,
				14.167021751403809,
				-19.571975708007812
			],
			"type":"VEC3"
		},
		{
			"bufferView":1,
			"componentType":5126,
			"count":68210,
			"type":"VEC3"
		},
		{
			"bufferView":2,
			"componentType":5126,
			"count":68210,
			"type":"VEC2"
		},
		{
			"bufferView":3,
			"componentType":5126,
			"count":68210,
			"type":"VEC2"
		},
		{
			"bufferView":4,
			"componentType":5125,
			"count":98298,
			"type":"SCALAR"
		},
		{
			"bufferView":5,
			"componentType":5126,
			"count":55816,
			"max":[
				17.565752029418945,
				55.94621276855469,
				19.200748443603516
			],
			"min":[
				-18.911367416381836,
				14.261934280395508,
				-19.70016098022461
			],
			"type":"VEC3"
		},
		{
			"bufferView":6,
			"componentType":5126,
			"count":55816,
			"type":"VEC3"
		},
		{
			"bufferView":7,
			"componentType":5126,
			"count":55816,
			"type":"VEC2"
		},
		{
			"bufferView":8,
			"componentType":5126,
			"count":55816,
			"type":"VEC2"
		},
		{
			"bufferView":9,
			"componentType":5123,
			"count":80658,
			"type":"SCALAR"
		}
	],
	"bufferViews":[
		{
			"buffer":0,
			"byteLength":818520,
			"byteOffset":0,
			"target":34962
		},
		{
			"buffer":0,
			"byteLength":818520,
			"byteOffset":818520,
			"target":34962
		},
		{
			"buffer":0,
			"byteLength":545680,
			"byteOffset":1637040,
			"target":34962
		},
		{
			"buffer":0,
			"byteLength":545680,
			"byteOffset":2182720,
			"target":34962
		},
		{
			"buffer":0,
			"byteLength":393192,
			"byteOffset":2728400,
			"target":34963
		},
		{
			"buffer":0,
			"byteLength":669792,
			"byteOffset":3121592,
			"target":34962
		},
		{
			"buffer":0,
			"byteLength":669792,
			"byteOffset":3791384,
			"target":34962
		},
		{
			"buffer":0,
			"byteLength":446528,
			"byteOffset":4461176,
			"target":34962
		},
		{
			"buffer":0,
			"byteLength":446528,
			"byteOffset":4907704,
			"target":34962
		},
		{
			"buffer":0,
			"byteLength":161316,
			"byteOffset":5354232,
			"target":34963
		}
	],
	"samplers":[
		{
			"magFilter":9729,
			"minFilter":9987
		}
	],
	"buffers":[
		{
			"byteLength":5515548,
			"uri":"stylized_tree_leaves.bin"
		}
	]
}
