{
	"asset":{
		"generator":"Khronos glTF Blender I/O v4.3.47",
		"version":"2.0"
	},
	"scene":0,
	"scenes":[
		{
			"name":"Scene",
			"nodes":[
				6
			]
		}
	],
	"nodes":[
		{
			"mesh":0,
			"name":"oak 01.001_trunk_Mat.001_0"
		},
		{
			"mesh":1,
			"name":"oak 01.001_trunk_Mat.001_0.001"
		},
		{
			"mesh":2,
			"name":"oak 01.001_trunk_Mat.001_0.002"
		},
		{
			"children":[
				0,
				1,
				2
			],
			"name":"oak 01.001"
		},
		{
			"children":[
				3
			],
			"name":"RootNode"
		},
		{
			"children":[
				4
			],
			"name":"e4a9b945b60a47099b7ed8ca539f430a.fbx",
			"rotation":[
				0.70710688829422,
				0,
				0,
				0.7071066498756409
			],
			"scale":[
				0.009999999776482582,
				0.010000000707805157,
				0.010000000707805157
			]
		},
		{
			"children":[
				5
			],
			"name":"Sketchfab_model",
			"rotation":[
				-0.70710688829422,
				0,
				0,
				0.7071066498756409
			]
		}
	],
	"materials":[
		{
			"doubleSided":true,
			"name":"trunk_Mat.001",
			"pbrMetallicRoughness":{
				"baseColorFactor":[
					0.22653400897979736,
					0.13164575397968292,
					0.06980875879526138,
					1
				],
				"metallicFactor":0,
				"roughnessFactor":0.9015756845474243
			}
		}
	],
	"meshes":[
		{
			"name":"oak 01.001_trunk_Mat.001_0",
			"primitives":[
				{
					"attributes":{
						"POSITION":0,
						"NORMAL":1,
						"TEXCOORD_0":2,
						"TEXCOORD_1":3
					},
					"indices":4,
					"material":0
				}
			]
		},
		{
			"name":"oak 01.001_trunk_Mat.001_0.001",
			"primitives":[
				{
					"attributes":{
						"POSITION":5,
						"NORMAL":6,
						"TEXCOORD_0":7,
						"TEXCOORD_1":8
					},
					"indices":9,
					"material":0
				}
			]
		},
		{
			"name":"oak 01.001_trunk_Mat.001_0.002",
			"primitives":[
				{
					"attributes":{
						"POSITION":10,
						"NORMAL":11,
						"TEXCOORD_0":12,
						"TEXCOORD_1":13
					},
					"indices":14,
					"material":0
				}
			]
		}
	],
	"accessors":[
		{
			"bufferView":0,
			"componentType":5126,
			"count":67868,
			"max":[
				16.837459564208984,
				55.26101303100586,
				18.27805519104004
			],
			"min":[
				-18.195764541625977,
				14.835824966430664,
				-13.081384658813477
			],
			"type":"VEC3"
		},
		{
			"bufferView":1,
			"componentType":5126,
			"count":67868,
			"type":"VEC3"
		},
		{
			"bufferView":2,
			"componentType":5126,
			"count":67868,
			"type":"VEC2"
		},
		{
			"bufferView":3,
			"componentType":5126,
			"count":67868,
			"type":"VEC2"
		},
		{
			"bufferView":4,
			"componentType":5125,
			"count":111342,
			"type":"SCALAR"
		},
		{
			"bufferView":5,
			"componentType":5126,
			"count":66998,
			"max":[
				15.174456596374512,
				54.719444274902344,
				14.652717590332031
			],
			"min":[
				-16.80191421508789,
				-1.0979881182038298e-07,
				-18.981842041015625
			],
			"type":"VEC3"
		},
		{
			"bufferView":6,
			"componentType":5126,
			"count":66998,
			"type":"VEC3"
		},
		{
			"bufferView":7,
			"componentType":5126,
			"count":66998,
			"type":"VEC2"
		},
		{
			"bufferView":8,
			"componentType":5126,
			"count":66998,
			"type":"VEC2"
		},
		{
			"bufferView":9,
			"componentType":5125,
			"count":133476,
			"type":"SCALAR"
		},
		{
			"bufferView":10,
			"componentType":5126,
			"count":47423,
			"max":[
				16.279285430908203,
				54.499961853027344,
				16.65343475341797
			],
			"min":[
				-16.73970603942871,
				15.082329750061035,
				-13.641866683959961
			],
			"type":"VEC3"
		},
		{
			"bufferView":11,
			"componentType":5126,
			"count":47423,
			"type":"VEC3"
		},
		{
			"bufferView":12,
			"componentType":5126,
			"count":47423,
			"type":"VEC2"
		},
		{
			"bufferView":13,
			"componentType":5126,
			"count":47423,
			"type":"VEC2"
		},
		{
			"bufferView":14,
			"componentType":5123,
			"count":122688,
			"type":"SCALAR"
		}
	],
	"bufferViews":[
		{
			"buffer":0,
			"byteLength":814416,
			"byteOffset":0,
			"target":34962
		},
		{
			"buffer":0,
			"byteLength":814416,
			"byteOffset":814416,
			"target":34962
		},
		{
			"buffer":0,
			"byteLength":542944,
			"byteOffset":1628832,
			"target":34962
		},
		{
			"buffer":0,
			"byteLength":542944,
			"byteOffset":2171776,
			"target":34962
		},
		{
			"buffer":0,
			"byteLength":445368,
			"byteOffset":2714720,
			"target":34963
		},
		{
			"buffer":0,
			"byteLength":803976,
			"byteOffset":3160088,
			"target":34962
		},
		{
			"buffer":0,
			"byteLength":803976,
			"byteOffset":3964064,
			"target":34962
		},
		{
			"buffer":0,
			"byteLength":535984,
			"byteOffset":4768040,
			"target":34962
		},
		{
			"buffer":0,
			"byteLength":535984,
			"byteOffset":5304024,
			"target":34962
		},
		{
			"buffer":0,
			"byteLength":533904,
			"byteOffset":5840008,
			"target":34963
		},
		{
			"buffer":0,
			"byteLength":569076,
			"byteOffset":6373912,
			"target":34962
		},
		{
			"buffer":0,
			"byteLength":569076,
			"byteOffset":6942988,
			"target":34962
		},
		{
			"buffer":0,
			"byteLength":379384,
			"byteOffset":7512064,
			"target":34962
		},
		{
			"buffer":0,
			"byteLength":379384,
			"byteOffset":7891448,
			"target":34962
		},
		{
			"buffer":0,
			"byteLength":245376,
			"byteOffset":8270832,
			"target":34963
		}
	],
	"buffers":[
		{
			"byteLength":8516208,
			"uri":"stylized_tree_trunk.bin"
		}
	]
}
